<svg width="35" height="26" viewBox="0 0 35 26" fill="none" xmlns="http://www.w3.org/2000/svg">
<path fill-rule="evenodd" clip-rule="evenodd" d="M34.0527 13.2339C34.0527 12.335 33.324 11.6063 32.4251 11.6063H2.0422C1.14328 11.6063 0.414551 12.335 0.414551 13.2339C0.414551 14.1329 1.14328 14.8616 2.0422 14.8616H32.4251C33.324 14.8616 34.0527 14.1329 34.0527 13.2339Z" fill="#077BFF"/>
<path fill-rule="evenodd" clip-rule="evenodd" d="M34.0527 2.3829C34.0527 1.48397 33.324 0.755249 32.4251 0.755249H2.0422C1.14328 0.755249 0.414551 1.48397 0.414551 2.3829C0.414551 3.28183 1.14328 4.01056 2.0422 4.01056H32.4251C33.324 4.01056 34.0527 3.28183 34.0527 2.3829Z" fill="#077BFF"/>
<path fill-rule="evenodd" clip-rule="evenodd" d="M34.0527 24.085C34.0527 23.186 33.324 22.4573 32.4251 22.4573H2.0422C1.14328 22.4573 0.414551 23.186 0.414551 24.085C0.414551 24.9839 1.14328 25.7126 2.0422 25.7126H32.4251C33.324 25.7126 34.0527 24.9839 34.0527 24.085Z" fill="#077BFF"/>
</svg>
